<svg width="111" height="36" viewBox="0 0 111 36" fill="none" xmlns="http://www.w3.org/2000/svg">
<path d="M31.0087 0.000671387V35.5791H39.6622V23.1361H47.7098V15.0179H39.6622V8.73093H48.3171V0.000671387H31.0087Z" fill="white"/>
<path d="M28.2854 0H19.6285V35.5782H28.2854V0Z" fill="white"/>
<path d="M0 0.000671387V35.5791H17.3122V27.4574H8.65353V0.000671387H0Z" fill="white"/>
<path d="M81.3055 7.2469L82.8273 22.3047H79.7421L81.3055 7.2469ZM97.691 0.000671387L95.2183 8.12047H100.917L90.8316 29.7296L91.6196 13.0212H85.6279L89.5512 0.000671387H74.1669L71.0507 35.5791H79.3587L79.834 28.5936H82.6902L83.1674 35.5791H90.8316H91.5606H111V27.4577H101.522L111 5.85042V0.000671387H97.691Z" fill="white"/>
<path d="M51.0983 0.000671387V35.5791H68.4108V27.4574H59.7572V20.9533H67.8032V13.4464H59.7572V8.12047H68.4108V0.000671387H51.0983Z" fill="white"/>
</svg>
