<svg width="16" height="21" viewBox="0 0 16 21" fill="none" xmlns="http://www.w3.org/2000/svg">
<path d="M8 20.4778C6.88441 20.4778 5.8446 19.8776 5.28692 18.9115L1.67941 12.901C0.580432 11.4862 0 9.79272 0 8C0 3.58862 3.58862 0 8 0C12.4114 0 16 3.58862 16 8C16 9.79272 15.4196 11.4862 14.3206 12.901L10.7063 18.9231C10.1554 19.8776 9.11559 20.4778 8 20.4778ZM8 1.59272C4.46712 1.59272 1.59272 4.46712 1.59272 8C1.59272 9.44915 2.06644 10.8175 2.96291 11.957C2.98362 11.9832 3.0025 12.0107 3.01979 12.0396L6.65939 18.1035C6.94061 18.59 7.45165 18.8851 8 18.8851C8.54835 18.8851 9.05939 18.59 9.33356 18.1151L12.98 12.0396C12.9973 12.0107 13.0162 11.9832 13.0369 11.957C13.9333 10.8175 14.4071 9.44937 14.4071 8C14.4073 4.46712 11.5329 1.59272 8 1.59272ZM8 11.522C6.05802 11.522 4.47804 9.94221 4.47804 8C4.47804 6.05779 6.05802 4.47804 8 4.47804C9.94198 4.47804 11.522 6.05802 11.522 8C11.522 9.94198 9.94198 11.522 8 11.522ZM8 6.07076C6.93606 6.07076 6.07076 6.93629 6.07076 8C6.07076 9.06371 6.93629 9.92924 8 9.92924C9.06371 9.92924 9.92924 9.06371 9.92924 8C9.92924 6.93606 9.06394 6.07076 8 6.07076Z" fill="#C4C4C4"/>
</svg>
