<svg width="20" height="20" viewBox="0 0 20 20" fill="none" xmlns="http://www.w3.org/2000/svg">
<path fill-rule="evenodd" clip-rule="evenodd" d="M2 9.87097C2 5.52395 5.52395 2 9.87097 2C11.7608 2 13.4927 2.66476 14.8494 3.77415C15.277 4.12375 15.907 4.06055 16.2566 3.633C16.6062 3.20545 16.543 2.57544 16.1154 2.22585C14.4145 0.835072 12.2389 0 9.87097 0C4.41938 0 0 4.41938 0 9.87097C0 15.3226 4.41938 19.7419 9.87097 19.7419C13.8854 19.7419 17.338 17.3456 18.8804 13.9095C19.1065 13.4057 18.8814 12.8139 18.3776 12.5877C17.8737 12.3615 17.2819 12.5866 17.0558 13.0905C15.8242 15.8343 13.0693 17.7419 9.87097 17.7419C5.52395 17.7419 2 14.218 2 9.87097ZM17.5103 4.41203C17.7731 4.15844 18.1308 4.01087 18.5076 4.00056C18.7991 3.9927 19.0864 4.06752 19.332 4.21527C19.5775 4.36303 19.77 4.57685 19.8842 4.82884C19.9984 5.08083 20.029 5.35929 19.9721 5.62789C19.9153 5.89649 19.7735 6.14276 19.5653 6.33456C18.2738 7.54981 16.9829 8.76063 15.6926 9.97093C14.4041 11.1795 13.1161 12.3876 11.8287 13.599C11.5728 13.8403 11.23 13.9828 10.8678 13.9985C10.5057 14.0143 10.1503 13.9021 9.87182 13.6842L5.51995 10.2789C5.2251 10.0473 5.04018 9.71528 5.00581 9.35575C4.97145 8.99622 5.09043 8.63857 5.33664 8.36134C5.58286 8.08411 5.93617 7.90995 6.31902 7.87711C6.70186 7.84426 7.08294 7.95541 7.37858 8.18615L10.7105 10.7968C11.6688 9.8963 12.6269 8.99735 13.5848 8.09866C14.8939 6.87041 16.2025 5.64265 17.5103 4.41203Z" fill="#7FE593"/>
</svg>
