<svg width="25" height="22" viewBox="0 0 25 22" fill="none" xmlns="http://www.w3.org/2000/svg">
<path fill-rule="evenodd" clip-rule="evenodd" d="M15.428 1.5C14.2733 -0.5 11.3865 -0.5 10.2318 1.5L1.12124 17.28C-0.0334574 19.28 1.40992 21.78 3.71932 21.78H21.9405C24.2499 21.78 25.6932 19.28 24.5385 17.28L15.428 1.5ZM11.9639 2.5C12.3488 1.83333 13.311 1.83333 13.6959 2.5L22.8065 18.28C23.1914 18.9466 22.7103 19.78 21.9405 19.78H3.71932C2.94952 19.78 2.46839 18.9466 2.85329 18.28L11.9639 2.5ZM11.5099 16.16C11.5099 15.431 12.1009 14.84 12.8299 14.84C13.5589 14.84 14.1499 15.431 14.1499 16.16C14.1499 16.889 13.5589 17.48 12.8299 17.48C12.1009 17.48 11.5099 16.889 11.5099 16.16ZM12.6499 13.96C11.8215 13.96 11.1499 13.2884 11.1499 12.46V7.53999C11.1499 6.71156 11.8215 6.03999 12.6499 6.03999C13.4783 6.03999 14.1499 6.71156 14.1499 7.53999V12.46C14.1499 13.2884 13.4783 13.96 12.6499 13.96Z" fill="#FF5C53"/>
</svg>
