<svg width="20" height="20" viewBox="0 0 20 20" fill="none" xmlns="http://www.w3.org/2000/svg">
<circle cx="10" cy="10" r="9" stroke="#FFBA87" stroke-width="2" stroke-linecap="round" stroke-linejoin="round"/>
<path d="M6.462 7.767C6.63 7.62233 6.80967 7.487 7.001 7.361C7.197 7.235 7.407 7.12533 7.631 7.032C7.85967 6.93867 8.10467 6.86633 8.366 6.815C8.632 6.759 8.91667 6.731 9.22 6.731C9.64 6.731 10.0203 6.78933 10.361 6.906C10.7017 7.018 10.9933 7.18133 11.236 7.396C11.4787 7.606 11.6653 7.86033 11.796 8.159C11.9313 8.45767 11.999 8.79133 11.999 9.16C11.999 9.51467 11.9477 9.82267 11.845 10.084C11.747 10.3407 11.621 10.5647 11.467 10.756C11.3177 10.9473 11.152 11.113 10.97 11.253C10.788 11.393 10.6153 11.5237 10.452 11.645C10.2887 11.7663 10.1463 11.8877 10.025 12.009C9.90833 12.1257 9.836 12.2563 9.808 12.401L9.633 13.402H8.31L8.177 12.268C8.14433 12.044 8.17233 11.8503 8.261 11.687C8.34967 11.519 8.46867 11.3673 8.618 11.232C8.76733 11.092 8.933 10.959 9.115 10.833C9.30167 10.7023 9.47433 10.5647 9.633 10.42C9.79633 10.2707 9.93167 10.105 10.039 9.923C10.151 9.73633 10.207 9.517 10.207 9.265C10.207 8.957 10.0997 8.712 9.885 8.53C9.675 8.348 9.395 8.257 9.045 8.257C8.78833 8.257 8.57133 8.285 8.394 8.341C8.22133 8.397 8.072 8.46 7.946 8.53C7.82 8.59533 7.71267 8.656 7.624 8.712C7.53533 8.768 7.45133 8.796 7.372 8.796C7.19467 8.796 7.06167 8.719 6.973 8.565L6.462 7.767ZM7.771 15.985C7.771 15.831 7.799 15.6863 7.855 15.551C7.91567 15.411 7.99733 15.292 8.1 15.194C8.20267 15.0913 8.32167 15.012 8.457 14.956C8.597 14.8953 8.74867 14.865 8.912 14.865C9.07067 14.865 9.22 14.8953 9.36 14.956C9.5 15.012 9.62133 15.0913 9.724 15.194C9.82667 15.292 9.906 15.411 9.962 15.551C10.0227 15.6863 10.053 15.831 10.053 15.985C10.053 16.1437 10.0227 16.2907 9.962 16.426C9.906 16.5613 9.82667 16.6803 9.724 16.783C9.62133 16.881 9.5 16.958 9.36 17.014C9.22 17.07 9.07067 17.098 8.912 17.098C8.74867 17.098 8.597 17.07 8.457 17.014C8.32167 16.958 8.20267 16.881 8.1 16.783C7.99733 16.6803 7.91567 16.5613 7.855 16.426C7.799 16.2907 7.771 16.1437 7.771 15.985Z" fill="#FFBA87"/>
</svg>
